<?xml version="1.0" encoding="UTF-8"?>
<svg width="45.64mm" height="31.034mm" version="1.1" viewBox="0 0 45.64 31.034" xmlns="http://www.w3.org/2000/svg" xmlns:cc="http://creativecommons.org/ns#" xmlns:dc="http://purl.org/dc/elements/1.1/" xmlns:rdf="http://www.w3.org/1999/02/22-rdf-syntax-ns#">
 <metadata>
  <rdf:RDF>
   <cc:Work rdf:about="">
    <dc:format>image/svg+xml</dc:format>
    <dc:type rdf:resource="http://purl.org/dc/dcmitype/StillImage"/>
    <dc:title/>
   </cc:Work>
  </rdf:RDF>
 </metadata>
 <g transform="translate(-74.954 -109.79)">
  <rect x="74.954" y="109.79" width="45.816" height="31.04" rx="0" ry="0" fill="#f1f0ea" stroke-width=".099854"/>
  <g transform="translate(-3.187 -7.276)">
   <rect x="78.593" y="117.46" width="45.026" height="30.427" ry="3.3246" fill="#353535" stroke="#dbd7d2" stroke-width=".17603"/>
   <path d="m119.88 117.24h0.88942c1.6677 0 3.0103 1.3296 3.0103 2.9811v24.891c0 1.6515-1.3426 2.9811-3.0103 2.9811h-0.88942c-1.6677 0-3.0103-1.3296-3.0103-2.9811v-24.891c0-1.6515 1.3426-2.9811 3.0103-2.9811z" fill="#ccc9c6" stroke-width=".11113"/>
   <rect transform="matrix(.62497 .78065 -.73019 .68324 0 0)" x="167.37" y="-22.228" width="6.9921" height="32.194" rx="3.3013" ry="4.2173" fill="#e3e0dc" stroke-width=".1131"/>
   <path d="m81.194 117.46h1.0306c1.6287 0 2.94 1.3112 2.94 2.94v24.547c0 1.6287-1.3112 2.94-2.94 2.94h-1.0306c-1.6287 0-2.94-1.3112-2.94-2.94v-24.547c0-1.6287 1.3112-2.94 2.94-2.94z" fill="#ccc9c6" stroke-width=".11037"/>
   <rect transform="matrix(.70426 -.70994 .74476 .66733 0 0)" x="-39.106" y="139.67" width="7.4095" height="32.917" ry="4.2071" fill="#e3e0dc" stroke-width=".11435"/>
  </g>
 </g>
</svg>
